<?xml version="1.0" encoding="utf-8"?>
<svg width="156" height="42" viewBox="0 0 156 42" fill="none" xmlns="http://www.w3.org/2000/svg" xmlns:bx="https://boxy-svg.com"><mask id="mask0_813_35645" style="mask-type:alpha" maskUnits="userSpaceOnUse" x="0" y="0" width="28" height="28"><path fill-rule="evenodd" clip-rule="evenodd" d="M27.9251 13.9378C27.6788 9.94 22.8748 9.15963 20.5674 6.18593C18.3144 3.68148 17.4588 0.160741 13.9407 0C10.4225 0.163333 9.56958 3.68148 7.31403 6.18593C5.69884 8.2237 2.66032 9.46556 1.20069 11.0833C-0.398935 12.6778 -0.401528 15.2756 1.20069 16.87C2.65773 18.4878 5.69625 19.7296 7.31403 21.7674C9.56699 24.2693 10.4225 27.79 13.9407 27.9533C17.4588 27.79 18.3118 24.2719 20.5674 21.7674C22.8748 18.7937 27.6788 18.0133 27.9251 14.0156V13.9404V13.9378ZM19.3929 8.43889C17.7855 7.13741 15.4574 7.41222 13.5025 7.35C11.4959 7.39926 9.34921 7.33704 8.13329 8.86148C7.26995 9.92963 7.27773 11.6459 7.25699 13.2663C7.26477 14.4511 7.26218 15.667 7.45144 16.8441C7.73662 19.3226 9.74329 20.6111 12.1207 20.5541C15.4651 20.6319 19.9607 21.1219 20.5362 16.8363C20.7696 14.3915 21.2829 10.2122 19.4551 8.49333L19.3929 8.43889Z" fill="#F7F8F9"/></mask><g mask="url(#mask0_813_35645)"><g clip-path="url(#clip0_813_35645)"><path d="M28 0H0V28H28V0Z" fill="#F7F8F9"/><path d="M28 0H0V28H28V0Z" fill="#F7F8F9"/><g filter="url(#filter0_f_813_35645)"><path d="M32.3378 15.96L1.25781 15.96L1.25781 32.2H32.3378V15.96Z" fill="#F7F8F9"/><ellipse cx="7.4223" cy="0.0311992" rx="15.6709" ry="10.7619" transform="rotate(-15 7.4223 0.0311992)" fill="#F7F8F9"/></g></g></g><defs><filter id="filter0_f_813_35645" x="-23.5243" y="-26.6859" width="71.4158" height="74.4414" filterUnits="userSpaceOnUse" color-interpolation-filters="sRGB"><feFlood flood-opacity="0" result="BackgroundImageFix"/><feBlend mode="normal" in="SourceGraphic" in2="BackgroundImageFix" result="shape"/><feGaussianBlur stdDeviation="7.77778" result="effect1_foregroundBlur_813_35645"/></filter><clipPath id="clip0_813_35645"><rect width="28" height="28" fill="white"/></clipPath><bx:export><bx:file format="svg"/></bx:export></defs><text style="fill: rgb(221, 221, 240); font-family: Inter; font-size: 26px; font-weight: 600; letter-spacing: -1.4px; white-space: pre;" x="31.453" y="22.833">HuddleBot</text><text style="white-space: pre; fill: rgb(51, 51, 51); font-family: Arial, sans-serif; font-size: 28px;" x="100.169" y="80.426"> </text></svg>